# xmcd CD database file
#
# Track frame offsets:
#	150
#	17837
#	42510
#	58270
#	77320
#	95820
#	113005
#	132905
#	151820
#	175900
#	193840
#	209620
#
# Disc length: 3004 seconds
#
# Revision: 0
# Processed by: cddbd v1.5.2PL0 Copyright (c) Steve Scherf et al.
# Submitted via: CDex 1.70beta3
#
DISCID=a40bba0c
DTITLE=Mr. Big - Lean Into It [Bonus Track]
DYEAR=1900
DGENRE=ロック
TTITLE0=Daddy, Brother, Lover, Little Boy (The Electric Drill Song)
TTITLE1=Alive And Kickin'
TTITLE2=Green-Tinted Sixties Mind
TTITLE3=CDFF-Lucky This Time
TTITLE4=Voodoo Kiss
TTITLE5=Never Say Never
TTITLE6=Just Take My Heart
TTITLE7=My Kinda Woman
TTITLE8=A Little Too Loose
TTITLE9=Road To Ruin
TTITLE10=To Be With You
TTITLE11=Love Makes You Strong
EXTD=
EXTT0=
EXTT1=
EXTT2=
EXTT3=
EXTT4=
EXTT5=
EXTT6=
EXTT7=
EXTT8=
EXTT9=
EXTT10=
EXTT11=
PLAYORDER=
